# xmcd CD database file
#
# Track frame offsets:
#	150
#	13142
#	26115
#	39097
#	49605
#	60060
#	70477
#	80907
#	91550
#	102650
#	113760
#	124880
#	135865
#	146887
#	177545
#	208500
#	244172
#	279067
#
# Disc length: 4120 seconds
#
# Revision: 3
# Processed by: cddbd v1.5.1PL0 Copyright (c) Steve Scherf et al.
# Submitted via: CDex 1.51
#
DISCID=f6101612
DTITLE=Neon Genesis Evangelion - Neon Genesis Evangelion Disc-06
DYEAR=1900
DGENRE=
TTITLE0=M - 6 tenpo late
TTITLE1=M - 6 tenpo late (without guitar)
TTITLE2=M - 6 tenpo late (rhythm only)
TTITLE3=M - 6 tenpo first
TTITLE4=M - 6 tenpo first (without guitar)
TTITLE5=M - 6 tenpo first (rhythm only, old)
TTITLE6=M - 6 tenpo first (rythhm only, other person/THE END)
TTITLE7=M - 6 tenpo first (changed, Summer end/THE END)
TTITLE8=M - 7B
TTITLE9=M - 7B(2)
TTITLE10=M - 7B (new make)
TTITLE11=M - 8
TTITLE12=M - 8 Coorasu Deirei
TTITLE13=M - 9
TTITLE14=M - 9 (modify)
TTITLE15=M - 10 (single, KIDA-155 only)
TTITLE16=M - 10 Director's Edit (Komm, susser Tod/THE END)
TTITLE17=M - 11 (first collection)
EXTD=
EXTT0=
EXTT1=
EXTT2=
EXTT3=
EXTT4=
EXTT5=
EXTT6=
EXTT7=
EXTT8=
EXTT9=
EXTT10=
EXTT11=
EXTT12=
EXTT13=
EXTT14=
EXTT15=
EXTT16=
EXTT17=
PLAYORDER=
